<svg width="20" height="20" viewBox="0 0 20 20" fill="none" xmlns="http://www.w3.org/2000/svg">
<path d="M10.2041 8.18188V12.0546H15.6958C15.4547 13.3001 14.731 14.3546 13.6457 15.0637L16.9574 17.5819C18.8869 15.8365 20.0001 13.2729 20.0001 10.2274C20.0001 9.51836 19.9352 8.83648 19.8145 8.18199L10.2041 8.18188Z" fill="#4285F4"/>
<path d="M4.48551 11.9033L3.73859 12.4636L1.09473 14.4818C2.77378 17.7454 6.21513 20 10.204 20C12.9591 20 15.2689 19.109 16.9573 17.5818L13.6456 15.0636C12.7365 15.6636 11.5769 16.0273 10.204 16.0273C7.55093 16.0273 5.2968 14.2728 4.48968 11.9091L4.48551 11.9033Z" fill="#34A853"/>
<path d="M1.09455 5.51819C0.39885 6.86359 0 8.38179 0 9.99994C0 11.6181 0.39885 13.1363 1.09455 14.4817C1.09455 14.4907 4.48983 11.8999 4.48983 11.8999C4.28575 11.2999 4.16512 10.6636 4.16512 9.99983C4.16512 9.33611 4.28575 8.69979 4.48983 8.09979L1.09455 5.51819Z" fill="#FBBC05"/>
<path d="M10.2042 3.98181C11.707 3.98181 13.0428 4.49089 14.1096 5.47272L17.0317 2.60912C15.2599 0.990969 12.9594 0 10.2042 0C6.21533 0 2.77378 2.24545 1.09473 5.51818L4.4899 8.1C5.29691 5.73634 7.55114 3.98181 10.2042 3.98181Z" fill="#EA4335"/>
</svg>
